PathFileType	4	(X/Y/Z)	C:/Users/beibeiliu/ov580/test_trc\sequence.33_training_dense_right.trc
DataRate	CameraRate	NumFrames	NumMarkers	Units	OrigDataRate	OrigDataStartFrame	OrigNumFrames
120	120	18	19	mm	120	187	373
Frame#	Time	ThumbCMC			ThumbMCP			ThumbIP			ThumbTip			IndexMCP			IndexPIP			IndexTip			MiddleMCP			MiddlePIP			MiddleTip			RingMCP			RingPIP			RingTip			PinkyMCP			PinkyPIP			PinkyTip			BackHand1			BackHand2			BackHand3	
		X0	Y0	Z0	X1	Y1	Z1	X2	Y2	Z2	X3	Y3	Z3	X4	Y4	Z4	X5	Y5	Z5	X6	Y6	Z6	X7	Y7	Z7	X8	Y8	Z8	X9	Y9	Z9	X10	Y10	Z10	X11	Y11	Z11	X12	Y12	Z12	X13	Y13	Z13	X14	Y14	Z14	X15	Y15	Z15	X16	Y16	Z16	X17	Y17	Z17	X18	Y18	Z18	
186	1.55	167.525	-31.9532	14.7641	170.355	-45.3617	-15.6315	180.053	-41.2589	-39.152	196.948	-36.8082	-55.4753	165.73	-3.17614	-44.969	182.29	-20.4277	-61.566	194.264	-33.7546	-37.7994	182.621	12.4473	-45.853	197.473	-1.94075	-67.731	209.892	-30.2253	-48.4514	198.689	29.6862	-34.0182	205.59	28.5358	-56.9676	212.59	13.3138	-76.5994	216.815	32.435	-11.9778	218.201	43.0638	-27.1433	221.796	57.4348	-35.6777	189.833	15.2169	10.6529	191.025	10.6701	36.704	166.688	1.89139	14.8606	
187	1.55833	167.478	-34.0082	15.558	172.381	-44.5507	-15.4125	180.199	-46.798	-37.4151	197.686	-39.9715	-55.7209	166.825	-2.72088	-44.3806	182.617	-24.1109	-61.8804	195.403	-34.6117	-38.3547	182.039	11.0201	-45.7938	197.316	-7.67822	-67.0182	209.83	-29.4833	-47.7923	193.863	27.691	-34.9725	199.389	26.5888	-57.3956	211.881	10.7055	-78.1278	214.094	33.1984	-13.5967	218.518	45.7628	-26.0942	219.725	60.9206	-36.8012	189.828	17.154	12.2187	187.812	10.1098	34.0136	166.026	-0.751897	14.9878	
188	1.56667	167.911	-35.1762	16.1343	170.597	-50.9058	-14.0248	180.028	-45.7069	-38.9175	197.269	-40.1095	-55.2467	163.134	-6.64594	-46.3986	182.588	-22.8133	-60.4569	194.455	-35.0148	-38.3694	178.257	9.81657	-48.3439	197.053	-1.57628	-66.1135	209.432	-29.6283	-47.2248	189.755	24.5485	-33.4322	198.255	27.1016	-57.4303	210.881	11.8214	-77.0259	207.219	28.7225	-14.091	211.063	44.1377	-27.8456	212.994	60.1121	-39.1293	188.177	13.6235	13.272	184.392	8.76881	33.566	167.01	-1.10069	20.545	
189	1.575	164.559	-39.1255	12.7425	170.173	-50.2802	-16.4329	179.154	-48.6822	-41.4406	197.291	-38.394	-53.9202	161.747	-8.94755	-42.7025	179.404	-25.9144	-61.0029	190.44	-38.9499	-39.2861	175.903	8.69466	-47.3503	193.574	-8.7456	-67.7581	206.833	-30.3395	-51.2317	187.613	24.7451	-35.6624	193.863	23.7389	-59.0525	209.129	12.0526	-75.1889	207.78	27.5128	-10.7806	207.43	42.5836	-29.3333	210.422	55.3509	-38.9482	185.744	14.3002	12.9329	182.869	6.13455	36.0625	162.933	-6.06736	18.3452	
190	1.58333	164.971	-40.7078	17.4435	169.792	-51.2233	-14.8639	178.037	-51.1166	-36.93	196.434	-39.2506	-54.5057	158.954	-11.7093	-44.7667	176.961	-25.8887	-61.4749	191.085	-39.2996	-37.5684	174.092	6.93184	-43.598	193.911	-7.40499	-66.2266	207.68	-30.073	-47.515	185.428	22.9303	-35.854	191.883	22.9026	-58.0701	206.739	8.17556	-77.8396	201.273	24.5644	-12.5357	204.388	40.9133	-27.224	208.215	54.5081	-39.0928	184.112	13.2835	10.1128	181.771	4.292	38.0971	159.835	-8.27961	18.2964	
191	1.59167	164.105	-39.7205	13.3483	170.161	-52.6808	-9.98187	177.269	-52.546	-39.5494	192.96	-45.4001	-53.5598	159.978	-11.1269	-46.5483	175.679	-25.3657	-61.5202	189.071	-40.8264	-41.5932	173.74	6.37778	-48.1495	190.539	-6.07376	-66.0975	204.566	-31.2548	-49.2371	183.578	21.851	-30.6097	188.046	21.4414	-57.6988	200.379	7.1208	-75.9772	200.643	28.0879	-11.2238	204.004	41.9691	-25.2844	202.408	54.7371	-42.6161	176.735	10.3291	11.5667	178.228	2.07589	36.4876	161.008	-7.18157	15.9482	
192	1.6	161.986	-43.3732	14.4365	168.649	-58.456	-13.3662	176.781	-51.3757	-36.748	192.454	-45.8973	-53.053	154.152	-16.6439	-44.257	173.13	-23.7232	-61.4856	188.837	-40.7023	-37.881	170.165	4.88894	-46.5503	187.17	-9.94182	-65.6189	202.369	-33.204	-49.8319	177.762	20.2029	-34.6909	186.436	22.7015	-56.4849	196.982	4.66345	-77.1008	193.705	26.3492	-14.8244	198.129	41.7518	-26.974	201.145	54.5751	-38.3285	176.25	8.25507	11.3317	174.577	1.58166	33.4548	156.631	-12.105	20.9572	
193	1.60833	163.212	-44.5802	18.3453	168.43	-57.4626	-15.2752	176.347	-57.3492	-33.2886	191.808	-46.2767	-53.2283	151.597	-17.8036	-40.7482	169.041	-28.2334	-61.5228	184.995	-43.7587	-37.9858	165.19	0.627459	-46.6683	180.49	-9.30308	-66.0092	198.576	-32.2209	-51.6034	175.796	17.8055	-29.2838	180.112	17.7453	-58.5716	193.867	4.70059	-77.7572	194.744	25.1611	-10.5118	195.387	42.1069	-27.5524	197.223	55.0984	-40.8498	173.224	10.9901	10.0269	175.363	3.12352	38.3589	155.537	-13.6127	21.9191	
194	1.61667	160.075	-48.4136	17.4563	166.993	-60.8559	-13.2819	174.745	-57.5704	-36.3335	189.844	-46.7228	-50.4888	151.039	-17.6254	-44.0781	168.775	-30.9139	-60.4225	185.902	-40.5489	-39.7444	162.628	1.84637	-46.7362	181.737	-9.04668	-65.2139	198.399	-31.9656	-50.8146	171.808	16.911	-31.2656	177.984	19.4972	-55.8346	190.709	8.95833	-74.6917	186.478	25.1593	-15.4075	191.809	37.5595	-24.6136	188.617	49.5173	-39.9402	169.878	6.45106	9.71943	170.638	1.37226	37.0899	151.217	-14.9096	19.6082	
195	1.625	159.092	-46.6836	15.9309	166.427	-58.7134	-13.0028	174.214	-57.5956	-32.5722	187.866	-44.3463	-47.8298	148.292	-20.8281	-43.7385	165.736	-33.5115	-60.3946	181.476	-47.0548	-35.9139	156.443	-2.90661	-45.8704	176.316	-12.7385	-65.56	196.969	-29.6047	-50.9197	168.875	17.0051	-31.8789	173.026	18.5674	-55.2762	185.844	6.49477	-75.5457	183.697	25.486	-13.9226	187.905	37.6388	-24.6216	182.55	51.0765	-42.6396	166.25	1.51139	12.7008	169.586	-1.11138	36.613	151.59	-16.7212	21.3354	
196	1.63333	158.234	-49.9814	18.1664	164.517	-60.7359	-11.824	172.072	-58.4948	-31.8423	185.46	-48.9286	-50.5382	143.616	-24.1952	-43.95	162.703	-34.7195	-59.1768	179.521	-47.9546	-37.4231	154.121	-4.14888	-46.1984	173.811	-13.8121	-65.4383	193.548	-34.1774	-46.7558	161.47	12.5919	-30.9238	169.2	17.5959	-56.3395	182.746	6.33709	-74.9371	178.033	20.9392	-14.3704	181.89	38.5776	-28.7042	180.516	51.049	-37.0373	163.18	6.25876	11.8714	168.166	-2.61814	39.7912	149.256	-18.2586	20.8214	
197	1.64167	157.409	-52.2198	20.7118	161.985	-64.309	-12.2343	168.448	-61.6365	-33.7541	182.039	-51.2747	-46.8589	141.652	-26.781	-40.3973	162.776	-36.758	-58.1614	178.825	-44.6309	-38.6837	148.82	-7.84672	-40.8644	166.027	-13.9625	-65.1278	191.099	-33.8836	-46.353	157.51	9.12769	-30.5054	165.814	14.7263	-57.0512	175.489	3.16904	-74.1677	177.343	21.122	-10.0877	176.661	36.1967	-28.3584	174.608	46.0882	-41.597	160.45	1.14839	11.2605	163.3	-7.76069	40.4452	143.379	-22.9435	21.9797	
198	1.65	155.833	-52.0892	21.009	161.28	-65.1424	-5.44902	166.663	-62.945	-31.2161	181.093	-51.6673	-51.5101	137.574	-29.3517	-37.7845	160.006	-36.058	-58.1371	176.374	-49.6512	-35.1055	149.411	-5.16723	-41.8005	164.942	-18.4435	-65.2153	187.697	-35.6933	-49.3808	157.436	9.69217	-28.5715	161.192	12.4593	-57.5461	171.795	1.33875	-72.5206	173.11	20.7406	-11.8825	174.489	35.5009	-27.7065	172.232	45.8676	-38.882	158.996	-0.716785	14.2389	158.335	-6.60873	36.8494	144.954	-22.0889	23.4813	
199	1.65833	153.115	-51.5216	17.4108	158.738	-66.4601	-11.5358	165.394	-60.438	-33.0509	178.95	-50.9999	-48.1114	138.986	-26.8817	-41.5455	154.04	-38.5541	-59.5254	174.27	-47.4767	-39.52	146.321	-6.77858	-43.2726	161.587	-16.6596	-64.8908	187.235	-33.4536	-47.3891	155.379	9.66419	-29.164	157.491	9.96359	-56.789	174.355	0.850385	-74.887	172.996	19.1212	-10.1756	171.357	34.8811	-27.8831	169.492	45.017	-41.5526	157.384	2.12135	11.5811	159.365	-6.85086	39.5464	139.298	-25.4544	22.9337	
200	1.66667	153.247	-52.3271	19.6724	159.574	-66.2782	-6.0014	165.23	-62.0042	-32.7466	178.416	-52.8435	-49.2	135.59	-28.9961	-39.0725	155.059	-37.3376	-59.2726	172.716	-47.7834	-39.3514	147.05	-6.08349	-43.8668	163.397	-14.5041	-64.7338	186.533	-33.3285	-49.3069	154.381	10.9972	-29.8617	159.973	12.5681	-57.2047	175.555	0.930238	-76.1399	172.337	20.7858	-10.2422	169.649	33.701	-29.4024	168.728	46.1724	-42.5039	152.946	-1.6268	12.6271	160.161	-4.6092	41.2139	140.451	-22.1307	22.0926	
201	1.675	151.352	-54.7043	21.9972	157.639	-66.6384	-9.85955	163.8	-64.092	-29.569	177.624	-52.6975	-48.9571	134.309	-28.9444	-38.328	154.418	-36.0559	-59.7039	171.329	-48.9504	-40.3634	146.897	-5.70478	-42.5249	160.606	-18.4034	-66.1259	185.178	-37.0639	-48.1128	155.195	10.6744	-28.0254	158.724	14.8879	-54.8047	169.649	0.327901	-75.6308	171.103	18.7054	-11.1422	169.911	32.917	-25.344	168.799	45.428	-43.1282	156.32	2.22793	12.3237	156.023	-5.77621	37.833	140.355	-26.0845	23.389	
202	1.68333	150.551	-52.909	18.6489	157.986	-66.1027	-7.68084	163.74	-63.349	-32.8936	176.78	-48.8752	-46.9624	132.682	-29.2339	-42.2658	153.226	-36.5118	-59.3754	171.825	-47.9558	-39.6528	143.511	-9.17945	-40.6904	162.3	-16.2906	-65.7244	180.881	-36.5218	-52.4089	150.857	8.72696	-30.789	157.351	12.8375	-57.779	168.928	2.89682	-74.6491	170.06	20.8723	-11.8897	166.702	32.0044	-27.6584	167.379	46.7668	-41.2208	153.605	1.20208	15.2192	158.496	-3.68183	36.9278	139.538	-23.471	22.3421	
203	1.69167	147.009	-55.638	17	155.48	-68.5478	-8.91309	163.179	-61.7064	-32.4529	177.124	-49.5172	-49.1269	133.01	-28.5413	-42.8007	150.565	-38.2044	-60.4395	170.192	-51.8519	-37.6398	143.159	-6.48251	-45.0193	160.037	-16.2903	-65.2805	182.721	-34.7193	-50.0716	152.363	11.2336	-29.9809	155.886	12.2497	-59.0423	170.81	2.34008	-76.4418	166.7	21.5904	-14.6832	166.054	32.5771	-30.1228	165.461	44.8063	-40.6504	152.338	0.615346	13.3856	158.268	-3.10836	41.0431	135.715	-22.5459	20.9597	
